<?xml version="1.0" encoding="utf-8"?>
<!-- Generator: Adobe Illustrator 21.0.0, SVG Export Plug-In . SVG Version: 6.00 Build 0)  -->
<svg version="1.1" id="Layer_1" xmlns="http://www.w3.org/2000/svg" xmlns:xlink="http://www.w3.org/1999/xlink" x="0px" y="0px"
	 viewBox="0 0 28.8 16.9" style="enable-background:new 0 0 28.8 16.9;" xml:space="preserve">
<style type="text/css">
	.st0{fill:#F89521;}
</style>
<g>
	<path class="st0" d="M1.2,7.3h23.4l-5.1-5.2c-0.6-0.5-0.6-1.1,0-1.7s1.1-0.6,1.7,0l7.2,7.2c0.1,0.1,0.2,0.2,0.3,0.4
		s0.1,0.3,0.1,0.4s0,0.3-0.1,0.4s-0.1,0.3-0.3,0.4l-7.2,7.2c-0.5,0.6-1.1,0.6-1.7,0c-0.6-0.6-0.6-1.1,0-1.7l5.1-5.2H1.2
		c-0.3,0-0.6-0.1-0.9-0.3S0,8.8,0,8.5s0-0.3,0-0.3s0.1-0.3,0.3-0.5S0.8,7.3,1.2,7.3z"/>
</g>
</svg>
