<?xml version="1.0" encoding="utf-8"?>
<!-- Generator: Adobe Illustrator 21.0.0, SVG Export Plug-In . SVG Version: 6.00 Build 0)  -->
<svg version="1.1" id="Layer_1" xmlns="http://www.w3.org/2000/svg" xmlns:xlink="http://www.w3.org/1999/xlink" x="0px" y="0px"
	 viewBox="0 0 30.1 30.1" style="enable-background:new 0 0 30.1 30.1;" xml:space="preserve">
<style type="text/css">
	.st0{fill:#FFFFFF;}
</style>
<g>
	<path class="st0" d="M30.1,12.2c0,3.4-1.2,6.2-3.6,8.6c-2.4,2.4-5.3,3.6-8.6,3.6c-2.9,0-5.4-0.9-7.7-2.7l-8,8
		C2,30,1.7,30.1,1.3,30.1c-0.4,0-0.7-0.1-0.9-0.4C0.1,29.5,0,29.2,0,28.8c0-0.4,0.1-0.7,0.4-0.9l8-8c-1.8-2.3-2.7-4.8-2.7-7.7
		c0-3.4,1.2-6.2,3.6-8.6C11.7,1.2,14.6,0,17.9,0c3.4,0,6.2,1.2,8.6,3.6C28.9,6,30.1,8.8,30.1,12.2z M28.2,12.2c0-2.9-1-5.3-3-7.3
		c-2-2-4.4-3-7.3-3c-2.9,0-5.3,1-7.3,3c-2,2-3,4.4-3,7.3c0,2.9,1,5.3,3,7.3c2,2,4.4,3,7.3,3c2.9,0,5.3-1,7.3-3
		C27.2,17.5,28.2,15,28.2,12.2z"/>
</g>
</svg>
